<?xml version="1.0" encoding="UTF-8" standalone="no"?>
<!DOCTYPE svg PUBLIC "-//W3C//DTD SVG 1.0//EN" "http://www.w3.org/TR/2001/REC-SVG-20010904/DTD/svg10.dtd">
<!-- Created with Inkscape (http://www.inkscape.org/) -->
<svg
   xmlns:dc="http://purl.org/dc/elements/1.1/"
   xmlns:cc="http://creativecommons.org/ns#"
   xmlns:rdf="http://www.w3.org/1999/02/22-rdf-syntax-ns#"
   xmlns:svg="http://www.w3.org/2000/svg"
   xmlns="http://www.w3.org/2000/svg"
   xmlns:sodipodi="http://sodipodi.sourceforge.net/DTD/sodipodi-0.dtd"
   xmlns:inkscape="http://www.inkscape.org/namespaces/inkscape"
   version="1.1"
   id="Logo"
   sodipodi:version="0.32"
   sodipodi:docname="Logo-Hochschule-Fulda.svg"
   inkscape:version="0.46"
   inkscape:output_extension="org.inkscape.output.svg.inkscape"
   x="0px"
   y="0px"
   width="436.92px"
   height="98.496px"
   viewBox="0 0 436.92 98.496"
   enable-background="new 0 0 436.92 98.496"
   xml:space="preserve"><metadata
   id="metadata2447"><rdf:RDF><cc:Work
       rdf:about=""><dc:format>image/svg+xml</dc:format><dc:type
         rdf:resource="http://purl.org/dc/dcmitype/StillImage" /></cc:Work></rdf:RDF></metadata><defs
   id="defs2445"><inkscape:perspective
     sodipodi:type="inkscape:persp3d"
     inkscape:vp_x="0 : 49.248001 : 1"
     inkscape:vp_y="0 : 1000 : 0"
     inkscape:vp_z="436.92001 : 49.248001 : 1"
     inkscape:persp3d-origin="218.46001 : 32.832001 : 1"
     id="perspective2449" /></defs><sodipodi:namedview
   inkscape:window-height="925"
   inkscape:window-width="1833"
   inkscape:pageshadow="2"
   inkscape:pageopacity="0.0"
   guidetolerance="10.0"
   gridtolerance="10.0"
   objecttolerance="10.0"
   borderopacity="1.0"
   bordercolor="#666666"
   pagecolor="#ffffff"
   id="base"
   showgrid="false"
   inkscape:zoom="1.2450792"
   inkscape:cx="218.46001"
   inkscape:cy="49.248001"
   inkscape:window-x="22"
   inkscape:window-y="22"
   inkscape:current-layer="Logo" />
<path
   id="Hintergrund"
   fill="#FFFFFF"
   d="M383.165,81.207c20.23,0,36.631-16.401,36.631-36.633  c0-20.229-16.398-36.629-36.631-36.629c-20.229,0-36.63,16.399-36.63,36.629C346.535,64.805,362.936,81.207,383.165,81.207" />
<path
   id="Ring"
   fill="#67CB33"
   d="M383.165,6.546c21.003,0.002,38.025,17.026,38.027,38.03l0,0  c-0.002,21.001-17.024,38.027-38.027,38.027l0,0c-21.004,0-38.028-17.025-38.028-38.027l0,0  C345.137,23.572,362.161,6.548,383.165,6.546L383.165,6.546z M383.165,9.344c-9.735,0-18.532,3.942-24.914,10.319l0,0  c-6.377,6.381-10.318,15.178-10.318,24.914l0,0c0,9.732,3.941,18.532,10.318,24.913l0,0c6.382,6.377,15.179,10.316,24.914,10.319  l0,0c9.732-0.003,18.532-3.942,24.911-10.319l0,0c6.379-6.381,10.318-15.181,10.32-24.913l0,0  c-0.002-9.735-3.941-18.533-10.32-24.914l0,0C401.697,13.286,392.897,9.344,383.165,9.344L383.165,9.344z" />
<path
   id="Blaetter"
   fill="#67CB33"
   d="M397.692,56.47 M373.304,21.466l-0.399,0.62c0.009,0.003,0.02,0.007,0.026,0.01  c0.146-0.203,0.288-0.406,0.44-0.606C373.35,21.481,373.326,21.473,373.304,21.466 M400.76,43.188  c-0.624,0.059-1.268,0.164-1.911,0.309c0.222,3.116,0.082,8.043-0.662,12.178c0.97-0.282,1.901-0.584,2.806-0.94  c0.6-2.705,1.186-8.558,1.239-11.591C401.606,43.146,401.096,43.157,400.76,43.188 M402.967,43.14  c0.068,2.932-0.173,7.75-0.758,11.07c1-0.463,1.962-1.016,2.897-1.691c0.436-2.16,1.021-6.919,1.102-9.44  C405.034,43.129,403.912,43.136,402.967,43.14 M394.659,45.189c0.207,3.174,0.313,7.271-0.562,11.583  c1.288-0.285,1.619-0.415,2.772-0.731c0.719-2.731,1.313-9.087,1.29-12.372C396.951,44.004,395.749,44.502,394.659,45.189   M406.956,43.036c-0.028,1.876-0.288,6.061-0.712,8.584c0.932-0.798,1.837-1.748,2.724-2.89c0.406-1.841,0.852-4.818,0.899-6.015  C408.926,42.879,407.933,42.975,406.956,43.036 M390.504,56.289c0.174,0.84,1.173,0.985,2.31,0.772  c0.78-2.337,1.158-7.967,1.202-11.433C391.248,47.662,389.418,51.06,390.504,56.289 M413.062,41.758  c-0.699,0.358-1.547,0.622-2.464,0.816c-0.025,1.113-0.194,2.958-0.38,4.398C411.177,45.51,412.121,43.794,413.062,41.758   M411.051,50.6c1.572-0.14,2.926-0.147,4.223-0.058c0.015-1.148-0.018-2.35-0.128-3.63c-0.959,0.327-1.804,0.677-2.405,1.017  c-0.836,0.471-1.191-0.504,0.063-1.041c0.806-0.343,1.544-0.612,2.245-0.829c-0.145-1.356-0.345-2.766-0.639-4.272  c-0.084-0.423-0.376-0.214-0.567,0.19c-8.396,17.764-15.81,13.467-29.746,19.763c3.735-5.945,5.31-17.163,5.31-17.163  c4.391-0.636,7.808-2.984,9.868-6.201c-2.843,1.101-5.89,2.491-7.991,4.059c-0.994,0.741-1.445-0.314-0.018-1.351  c2.525-1.828,5.78-2.92,8.602-3.725c0.979-1.869,1.535-3.976,1.598-6.184c-3.383,1.606-7.024,3.632-10.063,6.41  c-0.914,0.837-1.66-0.161-0.313-1.303c3.205-2.713,7.284-4.702,10.378-5.926c-0.052-1.9-0.467-3.859-1.285-5.791  c-2.734,1.92-5.924,4.061-8.973,7.748c-0.792,0.955-1.668,0.092-0.514-1.244c2.682-3.099,6.424-5.539,9.165-7.215  c-0.723-1.504-1.694-2.985-2.935-4.4c-2.299,2.148-4.207,3.807-6.828,8.057c-0.65,1.054-1.651,0.415-0.676-1.055  c2.316-3.49,4.653-5.678,6.963-7.596c-1.028-1.089-2.225-2.132-3.593-3.111c-1.707,2.081-3.471,4.438-4.536,7.388  c-0.396,1.107-1.467,0.618-0.718-0.944c1.473-3.079,2.966-5.017,4.655-6.865c-1.131-0.767-2.376-1.489-3.738-2.161  c-0.943,1.964-1.702,3.915-1.979,5.265c-0.235,1.154-1.335,0.9-0.822-0.697c0.622-1.921,1.45-3.493,2.228-4.843  c-1.006-0.476-2.073-0.92-3.203-1.336c-0.268,1.286-0.427,2.497-0.436,3.354c-0.01,1.009-1.047,0.855-0.874-0.574  c0.131-1.089,0.369-2.111,0.619-3.027c-1.111-0.386-2.279-0.744-3.507-1.067c-0.769-0.201-1.016,0.27-0.978,0.281  c-0.084,1.61,16.968,22.086-0.43,50.598c-3.162-8.658-16.451-0.228-26.554-24.293c-0.159-0.38-0.491,0.082-0.735,0.615  c-0.539,1.175-0.979,2.337-1.334,3.483c1.109,0.377,2.602,0.934,3.691,1.519c1.207,0.645,0.769,1.583-0.023,1.042  c-0.783-0.537-2.42-1.241-3.877-1.811c-0.428,1.522-0.708,3.014-0.837,4.454c1.7-0.172,4.234-0.208,6.447,0.031  c1.668,0.178,1.452,1.285,0.304,1.033c-1.502-0.332-4.343-0.374-6.8-0.26c-0.094,1.65-0.001,3.227,0.249,4.715  c2.092-0.697,5.604-1.666,8.646-1.818c1.676-0.083,1.809,1.182,0.632,1.111c-1.848-0.107-6.293,0.787-9.145,1.473  c0.394,1.875,1.04,3.588,1.885,5.102c2.046-1.327,5.955-3.582,9.183-4.561c1.689-0.511,2.147,0.746,0.931,0.975  c-1.972,0.369-6.904,2.775-9.709,4.263c0.926,1.487,2.051,2.751,3.322,3.748c2.326-2.082,5.159-4.549,8.964-6.229  c1.615-0.717,2.202,0.418,1.04,0.854c-2.335,0.873-4.242,1.872-9.367,5.857c1.293,0.891,2.719,1.506,4.216,1.813  c2.176-2.072,5.05-4.669,8.434-6.309c1.592-0.771,2.238,0.402,1.072,0.816c-1.991,0.707-5.823,3.451-8.578,5.635  c3.698,0.427,7.769-1.037,11.439-5.094c8.923,4.502,4.344,11.831-5.393,9.207c-4.654-1.254-7.686,1.663-7.399,2.698  c0.104,0.158,0.013,0.052,0.602-0.173c1.39-0.528,2.514-1.03,5.382-0.406c3.704,1.072,4.579,1.505,8.246,0.709  c-2.894,2.969-1.979,6.74,1.611,7.908c0.745,0.24,0.979-0.1-0.124-1.314c-1.555-1.715-0.823-3.791,1.535-5.51  c0.718,3.914,5.688,4.4,11.02,2.164c5.51-2.314,6.995-4.165,15.163-1.563c0.898,0.703,1.35,0.129,0.7-0.476  c-3.802-3.332-8.976-3.489-15.479-1.403c-11.106,3.559-10.191-4.709,3.229-9.479c2.052,3.708,6.576,5.859,11.127,5.577  c-2.537-2.324-5.685-4.813-7.482-5.546c-0.839-0.34-0.283-1.537,1.127-0.741c3.074,1.735,5.455,4.044,7.39,6.179  c1.655-0.238,3.283-0.824,4.773-1.771c-2.626-2.118-6.195-4.793-8.058-5.449c-0.805-0.284-0.259-1.488,1.086-0.799  c2.955,1.511,5.664,3.866,7.675,5.778c1.261-0.932,2.396-2.16,3.334-3.703c-2.614-1.506-5.813-3.004-7.621-3.44  c-1.206-0.293-0.682-1.526,0.979-0.926c2.844,1.026,5.185,2.333,7.058,3.618c0.698-1.315,1.257-2.836,1.642-4.579  c-2.392-0.728-4.834-1.248-6.404-1.292c-1.175-0.032-0.936-1.282,0.729-1.053c2.383,0.328,4.215,0.842,5.864,1.472  c0.205-1.138,0.337-2.361,0.388-3.679c-1.75,0.012-3.354,0.143-4.517,0.343C409.874,51.785,409.614,50.73,411.051,50.6   M383.811,22.458c-1.945-1.455-5.613-3.46-7.753-4.282c-0.355,0.525-0.721,1.005-1.092,1.408c-0.586,0.631-1.111,1.267-1.595,1.905  c3.358,1.104,8.282,3.149,11.424,4.933C384.521,25.046,384.191,23.723,383.811,22.458 M383.247,44.454  c0.998,0.062,1.309-0.524,1.566-1.847c-3.096-1.736-9.42-4.263-13.628-5.324C373.342,41.302,377.706,44.117,383.247,44.454   M379.258,11.564c-0.271,0.759-0.58,1.536-0.912,2.304c0.761,0.396,1.831,0.908,2.698,1.418  C380.454,13.996,379.848,12.755,379.258,11.564 M369.733,30.85c3.251,0.606,11.646,3.663,15.789,5.769  c0.063-1.19,0.063-2.332,0.029-3.449c-2.781-1.715-10.351-5.213-14.947-6.667C370.073,27.983,369.791,29.441,369.733,30.85   M370.741,36.36c3.836,0.84,10.585,3.228,14.275,5.062c0.001-0.007,0.001-0.012,0.003-0.019c0.188-1.202,0.311-2.354,0.401-3.486  c-2.885-1.598-11.271-5.21-15.693-6.2C369.769,33.361,370.119,34.926,370.741,36.36 M381.77,16.926  c-0.882-0.714-2.661-1.775-3.689-2.461c-0.491,1.084-1.028,2.127-1.603,3.057c1.479,0.618,4.833,2.056,6.814,3.336  C382.826,19.487,382.308,18.181,381.77,16.926 M385.049,27.801c-2.394-1.487-8.514-4.333-12.118-5.706  c-0.867,1.235-1.55,2.471-2.057,3.701c3.392,0.938,10.74,3.843,14.622,6.01C385.412,30.417,385.258,29.083,385.049,27.801   M368.443,39.286c-1.319-0.474-2.646-0.721-3.771-0.852c0.037,3.303,0.749,10.965,1.429,13.683c0.775,0.422,1.544,0.778,2.303,1.09  C367.841,46.012,368.117,42.596,368.443,39.286 M372.582,41.929c-0.979-1.066-2.165-1.819-3.39-2.347  c-0.26,3.622-0.095,11.605,0.531,13.878c0.016,0.055,0.041,0.162,0.07,0.273c0.724,0.253,1.43,0.469,2.118,0.666  C371.647,49.992,372.107,45.229,372.582,41.929 M357.161,37.912c0.24,1.407,0.909,5.88,1.727,8.098  c0.757,0.925,1.518,1.75,2.277,2.479c-0.591-2.975-1.087-8.637-1.201-10.334C359.078,38.099,358.099,38.02,357.161,37.912   M373.25,42.756c-0.335,3.436-0.536,9.412-0.137,12.01c0.528,0.112,1.082,0.121,1.188-0.313  C375.711,48.798,374.947,45.139,373.25,42.756 M363.947,38.362c-0.568-0.047-1.066-0.068-1.447-0.082  c-0.438-0.015-1.081-0.041-1.826-0.082c0.298,2.417,0.899,8.716,1.948,11.579c0.72,0.587,1.437,1.104,2.148,1.557  C364.041,46.785,363.883,41.503,363.947,38.362 M353.48,37.119c1.339,2.878,2.728,5.254,4.14,7.229  c-0.419-1.491-0.854-5.228-1.082-6.515C355.273,37.664,354.139,37.435,353.48,37.119" />
<path
   id="Hochschule_Fulda"
   d="M 37.268,46.122 L 32.461,46.122 L 34.563,35.121 L 24.014,35.121 L 21.946,46.122 L 17.14,46.122 L 21.946,20.778 L 26.754,20.778 L 24.802,30.915 L 35.351,30.915 L 37.268,20.778 L 42.073,20.778 L 37.268,46.122 z M 54.238,31.178 C 50.747,31.178 48.644,35.346 48.644,39.063 C 48.644,41.091 49.47,42.367 51.648,42.367 C 54.989,42.367 57.317,38.65 57.317,34.481 C 57.318,32.342 56.415,31.178 54.238,31.178 M 51.01,46.5 C 45.79,46.5 43.725,44.021 43.725,39.815 C 43.725,32.004 48.943,27.086 54.951,27.086 C 60.284,27.086 62.272,29.94 62.272,33.882 C 62.272,41.579 56.867,46.5 51.01,46.5 M 79.657,31.705 C 78.833,31.329 77.892,31.142 76.767,31.142 C 72.862,31.142 71.058,35.497 71.058,38.988 C 71.058,40.753 71.81,42.292 74.363,42.292 C 75.565,42.292 76.841,42.03 77.856,41.579 L 77.442,45.747 C 76.165,46.197 74.589,46.499 72.975,46.499 C 67.981,46.499 66.066,43.945 66.066,40.039 C 66.066,32.904 70.272,27.084 77.066,27.084 C 78.419,27.084 79.62,27.272 80.785,27.571 L 79.657,31.705 z M 98.808,46.122 L 94.076,46.122 L 96.329,34.407 C 96.78,32.119 96.404,31.179 95.202,31.179 C 92.687,31.179 89.309,37.036 88.481,41.391 L 87.58,46.122 L 82.887,46.122 L 88.107,18.713 L 92.8,18.713 L 91.335,26.597 C 90.998,28.25 90.434,30.127 89.309,33.244 L 89.382,33.282 C 91.071,29.939 93.663,27.048 97.23,27.048 C 100.834,27.048 101.925,29.601 101.248,33.244 L 98.808,46.122 z M 117.506,31.028 C 116.68,30.764 115.817,30.653 114.99,30.653 C 113.038,30.653 112.097,31.442 112.097,32.642 C 112.097,34.933 116.943,36.02 116.943,40.153 C 116.943,43.268 114.238,46.5 108.42,46.5 C 107.181,46.5 106.089,46.385 105.153,46.236 L 106.016,42.18 C 106.88,42.48 107.931,42.705 108.87,42.705 C 110.785,42.705 111.987,41.955 111.987,40.602 C 111.987,38.087 107.181,37.523 107.181,33.131 C 107.181,29.713 109.847,27.085 115.215,27.085 C 116.417,27.085 117.43,27.162 118.369,27.349 L 117.506,31.028 z M 135.604,31.705 C 134.778,31.329 133.839,31.142 132.712,31.142 C 128.807,31.142 127.005,35.497 127.005,38.988 C 127.005,40.753 127.756,42.292 130.308,42.292 C 131.512,42.292 132.787,42.03 133.801,41.579 L 133.387,45.747 C 132.112,46.197 130.535,46.499 128.919,46.499 C 123.925,46.499 122.012,43.945 122.012,40.039 C 122.012,32.904 126.216,27.084 133.012,27.084 C 134.365,27.084 135.565,27.272 136.729,27.571 L 135.604,31.705 z M 154.753,46.122 L 150.022,46.122 L 152.274,34.407 C 152.727,32.119 152.348,31.179 151.149,31.179 C 148.632,31.179 145.254,37.036 144.428,41.391 L 143.527,46.122 L 138.834,46.122 L 144.052,18.713 L 148.747,18.713 L 147.282,26.597 C 146.945,28.25 146.381,30.127 145.254,33.244 L 145.329,33.282 C 147.018,29.939 149.609,27.048 153.177,27.048 C 156.782,27.048 157.869,29.601 157.195,33.244 L 154.753,46.122 z M 179.271,37.224 C 178.785,39.777 178.032,43.87 177.657,46.122 L 173.077,46.122 C 173.265,44.997 173.715,43.268 174.728,40.34 L 174.653,40.303 C 172.964,43.644 170.374,46.535 166.806,46.535 C 163.201,46.535 162.112,43.982 162.789,40.339 L 165.266,27.461 L 169.961,27.461 L 167.706,39.176 C 167.293,41.467 167.63,42.404 168.834,42.404 C 171.349,42.404 174.728,36.548 175.555,32.192 L 176.455,27.462 L 181.148,27.462 L 179.271,37.224 z M 189.221,46.122 L 184.53,46.122 L 189.747,18.712 L 194.441,18.712 L 189.221,46.122 z M 206.493,30.616 C 204.052,30.616 202.513,32.868 201.837,35.307 C 206.154,35.159 208.409,34.257 208.409,32.267 C 208.409,31.215 207.696,30.616 206.493,30.616 M 201.311,38.5 C 201.276,38.914 201.198,39.552 201.198,39.965 C 201.198,42.106 202.024,42.743 204.616,42.743 C 206.419,42.743 208.333,42.329 210.06,41.617 L 210.06,45.296 C 207.997,46.086 205.554,46.5 203.076,46.5 C 198.345,46.5 196.469,44.32 196.469,40.19 C 196.469,32.378 201.198,27.085 207.019,27.085 C 211.638,27.085 213.065,29.376 213.065,31.629 C 213.065,36.097 208.634,38.275 201.311,38.5 M 243.703,24.907 L 235.217,24.907 L 233.978,31.441 L 242.013,31.441 L 241.224,35.458 L 233.226,35.458 L 231.2,46.122 L 226.394,46.122 L 231.2,20.778 L 244.492,20.778 L 243.703,24.907 z M 262.587,37.224 C 262.099,39.777 261.351,43.87 260.974,46.122 L 256.392,46.122 C 256.58,44.997 257.033,43.268 258.044,40.34 L 257.969,40.303 C 256.281,43.644 253.691,46.535 250.121,46.535 C 246.517,46.535 245.428,43.982 246.102,40.339 L 248.581,27.461 L 253.274,27.461 L 251.024,39.176 C 250.608,41.467 250.946,42.404 252.149,42.404 C 254.666,42.404 258.044,36.548 258.869,32.192 L 259.77,27.462 L 264.463,27.462 L 262.587,37.224 z M 272.538,46.122 L 267.844,46.122 L 273.064,18.712 L 277.757,18.712 L 272.538,46.122 z M 290.858,30.879 C 286.545,30.879 284.551,35.909 284.551,39.815 C 284.551,41.654 285.038,42.405 285.979,42.405 C 288.645,42.405 291.989,36.284 292.737,32.343 L 292.965,31.143 C 292.362,30.99 291.687,30.879 290.858,30.879 M 296.08,39.402 C 295.705,41.467 295.179,44.396 294.878,46.121 L 290.26,46.121 C 290.525,44.657 291.124,42.78 291.989,40.189 L 291.913,40.189 C 290.411,42.93 287.819,46.534 284.102,46.534 C 281.248,46.534 279.707,44.694 279.707,40.714 C 279.707,33.656 283.501,27.122 291.686,27.122 C 292.325,27.122 292.886,27.161 293.677,27.272 L 295.29,18.711 L 300.022,18.711 L 296.08,39.402 z M 313.087,30.879 C 308.771,30.879 306.78,35.909 306.78,39.815 C 306.78,41.654 307.268,42.405 308.206,42.405 C 310.871,42.405 314.215,36.284 314.965,32.343 L 315.192,31.143 C 314.591,30.99 313.914,30.879 313.087,30.879 M 317.108,46.122 L 312.45,46.122 C 312.789,44.658 313.351,42.781 314.216,40.19 L 314.142,40.19 C 312.64,42.931 310.048,46.535 306.33,46.535 C 303.476,46.535 301.936,44.695 301.936,40.715 C 301.936,33.657 305.728,27.123 313.914,27.123 C 316.168,27.123 318.42,27.273 320.524,27.687 C 318.873,36.359 317.894,41.204 317.108,46.122"
   style="fill:#1f1d21" />
<path
   id="University_of_Applied_Sciences"
   d="M 85.1,69.207 C 84.442,72.721 82.325,74.342 78.95,74.342 C 75.016,74.342 74.317,72.162 74.836,69.448 L 76.494,60.66 L 78.291,60.66 L 76.592,69.525 C 76.195,71.682 76.815,72.82 79.21,72.82 C 81.508,72.82 82.826,71.823 83.366,69.006 L 84.962,60.66 L 86.722,60.66 L 85.1,69.207 z M 95.606,74.139 L 93.848,74.139 L 95.066,67.788 C 95.367,66.228 95.087,65.552 94.188,65.552 C 92.35,65.552 90.313,69.448 89.855,71.904 L 89.435,74.139 L 87.677,74.139 L 88.677,68.946 C 88.935,67.529 89.297,65.672 89.555,64.215 L 91.293,64.215 C 91.172,64.875 90.892,66.011 90.194,68.129 L 90.235,68.129 C 91.172,66.031 92.75,64.016 94.829,64.016 C 96.665,64.016 97.285,65.313 96.906,67.39 L 95.606,74.139 z M 102.356,62.576 C 101.696,62.576 101.216,62.057 101.257,61.438 C 101.277,60.757 101.857,60.239 102.516,60.239 C 103.154,60.239 103.653,60.738 103.615,61.358 C 103.575,62.035 102.996,62.576 102.356,62.576 M 100.88,74.139 L 99.12,74.139 L 101.018,64.214 L 102.776,64.214 L 100.88,74.139 z M 108.407,74.139 L 106.571,74.139 L 104.813,64.214 L 106.71,64.214 L 107.629,70.044 C 107.729,70.665 107.809,71.363 107.848,71.964 L 107.869,71.964 L 112.061,63.794 L 113.721,64.374 L 108.407,74.139 z M 119.272,65.39 C 117.696,65.39 116.636,66.77 116.177,68.446 C 119.253,68.328 120.61,67.709 120.61,66.508 C 120.61,65.791 120.072,65.39 119.272,65.39 M 115.958,69.767 C 115.897,70.066 115.856,70.566 115.856,70.923 C 115.856,72.462 116.396,72.86 117.993,72.86 C 118.932,72.86 119.932,72.641 120.79,72.281 L 120.79,73.721 C 119.832,74.099 118.674,74.32 117.375,74.32 C 115.097,74.32 114.039,73.34 114.039,71.104 C 114.039,67.25 116.177,64.033 119.472,64.033 C 121.588,64.033 122.388,65.112 122.388,66.291 C 122.387,68.426 120.211,69.606 115.958,69.767 M 130.258,65.771 C 128.418,65.251 126.462,69.146 125.942,71.903 L 125.524,74.138 L 123.766,74.138 L 125.643,64.214 L 127.361,64.214 C 127.202,65.072 126.923,66.13 126.343,67.868 L 126.383,67.887 C 127.502,65.472 128.699,63.712 130.617,64.033 L 130.258,65.771 z M 136.907,65.63 C 136.428,65.472 135.909,65.39 135.409,65.39 C 134.112,65.39 133.432,66.01 133.432,66.848 C 133.432,68.426 136.447,68.847 136.447,71.083 C 136.447,72.741 134.99,74.318 132.174,74.318 C 131.515,74.318 130.976,74.278 130.477,74.176 L 130.796,72.578 C 131.316,72.74 131.856,72.838 132.415,72.838 C 133.712,72.838 134.591,72.319 134.591,71.281 C 134.591,69.703 131.595,69.445 131.595,67.047 C 131.595,65.351 132.952,64.03 135.53,64.03 C 136.228,64.03 136.727,64.092 137.227,64.172 L 136.907,65.63 z M 141.982,62.576 C 141.321,62.576 140.842,62.057 140.882,61.438 C 140.902,60.757 141.482,60.239 142.14,60.239 C 142.78,60.239 143.278,60.738 143.239,61.358 C 143.198,62.035 142.619,62.576 141.982,62.576 M 140.501,74.139 L 138.745,74.139 L 140.642,64.214 L 142.4,64.214 L 140.501,74.139 z M 150.49,65.613 L 147.792,65.613 L 146.813,70.804 C 146.534,72.341 146.733,72.762 147.713,72.762 C 148.272,72.762 148.691,72.7 149.091,72.601 L 148.97,74.099 C 148.391,74.219 147.693,74.298 147.112,74.298 C 145.075,74.298 144.556,73.339 144.977,71.083 L 146.035,65.611 L 144.017,65.611 L 144.296,64.214 L 146.293,64.214 L 146.913,60.995 L 148.77,60.577 L 148.07,64.214 L 150.768,64.214 L 150.49,65.613 z M 153.324,77.416 C 152.147,78.614 150.909,79.213 149.731,79.213 C 149.231,79.213 148.731,79.172 148.333,79.072 L 148.632,77.455 C 149.031,77.594 149.449,77.654 149.89,77.654 C 150.588,77.654 151.407,77.234 152.085,76.516 C 152.865,75.676 153.206,74.777 153.206,73.337 C 153.206,70.704 152.645,67.428 151.747,64.212 L 153.744,64.212 C 154.402,66.786 154.862,69.884 154.862,72.001 C 154.862,72.36 154.802,72.839 154.721,73.239 L 154.743,73.239 C 156.319,70.464 157.68,67.626 159.236,63.812 L 160.914,64.311 C 158.296,70.445 155.78,74.917 153.324,77.416 M 171.42,65.552 C 169.242,65.552 167.785,67.988 167.785,70.484 C 167.785,71.964 168.384,72.78 169.883,72.78 C 171.819,72.78 173.516,70.705 173.516,67.809 C 173.516,66.35 172.857,65.552 171.42,65.552 M 169.582,74.319 C 167.085,74.319 165.947,73.061 165.947,70.785 C 165.947,66.83 168.463,64.032 171.7,64.032 C 174.314,64.032 175.395,65.511 175.395,67.607 C 175.395,71.703 172.578,74.319 169.582,74.319 M 185.101,61.097 C 184.66,60.978 184.122,60.898 183.703,60.898 C 182.264,60.898 181.466,61.657 181.146,63.535 L 181.024,64.215 L 183.722,64.215 L 183.423,65.613 L 180.746,65.613 L 179.029,74.639 C 178.408,77.895 176.891,79.212 174.473,79.212 C 173.895,79.212 173.295,79.152 172.757,79.034 L 173.195,77.513 C 173.655,77.654 174.192,77.711 174.593,77.711 C 176.01,77.711 176.81,76.994 177.249,74.677 L 178.987,65.611 L 176.969,65.611 L 177.268,64.214 L 179.247,64.214 L 179.389,63.514 C 179.868,60.798 181.304,59.439 183.881,59.439 C 184.44,59.439 184.98,59.5 185.539,59.619 L 185.101,61.097 z M 195.227,64.712 C 195.106,64.073 195.026,63.376 194.987,62.714 L 194.947,62.714 C 194.687,63.335 194.347,64.032 193.968,64.733 L 191.373,69.525 L 196.025,69.525 L 195.227,64.712 z M 196.723,74.139 L 196.244,70.985 L 190.612,70.985 L 188.914,74.139 L 186.997,74.139 L 194.387,60.66 L 196.383,60.66 L 198.66,74.139 L 196.723,74.139 z M 207.308,65.552 C 205.431,65.552 203.412,69.526 202.954,71.863 L 202.794,72.623 C 203.212,72.764 203.812,72.86 204.231,72.86 C 207.149,72.86 208.327,69.826 208.327,67.369 C 208.327,66.07 207.928,65.552 207.308,65.552 M 203.894,74.279 C 203.395,74.279 202.955,74.238 202.495,74.16 L 201.577,79.072 L 199.821,79.072 L 202.635,64.215 L 204.392,64.215 C 204.214,65.073 203.954,66.051 203.274,68.189 L 203.315,68.208 C 204.332,65.872 205.89,64.017 207.928,64.017 C 209.366,64.017 210.146,64.934 210.146,67.031 C 210.146,70.684 208.247,74.279 203.894,74.279 M 218.253,65.552 C 216.376,65.552 214.359,69.526 213.898,71.863 L 213.74,72.623 C 214.158,72.764 214.758,72.86 215.178,72.86 C 218.095,72.86 219.272,69.826 219.272,67.369 C 219.272,66.07 218.873,65.552 218.253,65.552 M 214.839,74.279 C 214.34,74.279 213.898,74.238 213.44,74.16 L 212.522,79.072 L 210.764,79.072 L 213.58,64.215 L 215.337,64.215 C 215.159,65.073 214.899,66.051 214.219,68.189 L 214.26,68.208 C 215.277,65.872 216.837,64.017 218.873,64.017 C 220.311,64.017 221.089,64.934 221.089,67.031 C 221.088,70.684 219.19,74.279 214.839,74.279 M 224.405,74.139 L 222.647,74.139 L 225.423,59.56 L 227.18,59.56 L 224.405,74.139 z M 231.156,62.576 C 230.496,62.576 230.018,62.057 230.055,61.438 C 230.076,60.757 230.657,60.239 231.315,60.239 C 231.954,60.239 232.453,60.738 232.415,61.358 C 232.374,62.035 231.795,62.576 231.156,62.576 M 229.679,74.139 L 227.919,74.139 L 229.817,64.214 L 231.575,64.214 L 229.679,74.139 z M 238.426,65.39 C 236.847,65.39 235.787,66.77 235.33,68.446 C 238.405,68.328 239.765,67.709 239.765,66.508 C 239.765,65.791 239.224,65.39 238.426,65.39 M 235.11,69.767 C 235.05,70.066 235.009,70.566 235.009,70.923 C 235.009,72.462 235.549,72.86 237.147,72.86 C 238.085,72.86 239.084,72.641 239.944,72.281 L 239.944,73.721 C 238.983,74.099 237.826,74.32 236.528,74.32 C 234.251,74.32 233.192,73.34 233.192,71.104 C 233.192,67.25 235.331,64.033 238.626,64.033 C 240.742,64.033 241.542,65.112 241.542,66.291 C 241.542,68.426 239.362,69.606 235.11,69.767 M 248.79,65.472 C 245.835,65.472 244.678,68.527 244.678,70.985 C 244.678,72.281 245.076,72.801 245.697,72.801 C 247.574,72.801 249.611,68.827 250.07,66.45 L 250.212,65.649 C 249.81,65.552 249.351,65.472 248.79,65.472 M 251.028,70.565 C 250.768,71.941 250.507,73.319 250.368,74.138 L 248.612,74.138 C 248.77,73.282 249.149,71.964 249.749,70.103 L 249.711,70.083 C 248.991,71.622 247.492,74.339 245.076,74.339 C 243.638,74.339 242.856,73.419 242.856,71.32 C 242.856,67.667 244.756,64.05 249.09,64.05 C 249.589,64.05 249.986,64.09 250.486,64.17 L 251.343,59.558 L 253.122,59.558 L 251.028,70.565 z M 266.248,62.296 C 265.586,62.057 264.869,61.976 264.37,61.976 C 262.371,61.976 261.474,63.114 261.474,64.193 C 261.474,66.631 265.586,66.711 265.586,69.905 C 265.586,72.403 263.392,74.342 260.256,74.342 C 259.535,74.342 258.697,74.261 258.039,74.062 L 258.379,72.303 C 258.937,72.543 259.733,72.721 260.415,72.721 C 262.491,72.721 263.671,71.703 263.671,70.205 C 263.671,67.871 259.576,67.849 259.576,64.612 C 259.576,62.394 261.313,60.459 264.548,60.459 C 265.228,60.459 265.827,60.498 266.586,60.66 L 266.248,62.296 z M 275.036,65.912 C 274.494,65.672 273.917,65.531 273.217,65.531 C 270.7,65.531 269.523,68.369 269.523,70.623 C 269.523,71.664 269.861,72.72 271.599,72.72 C 272.378,72.72 273.217,72.541 273.835,72.242 L 273.716,73.818 C 273.019,74.08 272.099,74.298 271.101,74.298 C 268.523,74.298 267.646,72.9 267.646,71.023 C 267.646,67.23 269.783,64.052 273.336,64.052 C 274.156,64.052 274.815,64.173 275.435,64.353 L 275.036,65.912 z M 279.347,62.576 C 278.689,62.576 278.209,62.057 278.25,61.438 C 278.269,60.757 278.847,60.239 279.507,60.239 C 280.148,60.239 280.646,60.738 280.607,61.358 C 280.565,62.035 279.987,62.576 279.347,62.576 M 277.869,74.139 L 276.112,74.139 L 278.008,64.214 L 279.764,64.214 L 277.869,74.139 z M 286.618,65.39 C 285.04,65.39 283.981,66.77 283.52,68.446 C 286.596,68.328 287.956,67.709 287.956,66.508 C 287.956,65.791 287.416,65.39 286.618,65.39 M 283.301,69.767 C 283.24,70.066 283.201,70.566 283.201,70.923 C 283.201,72.462 283.741,72.86 285.338,72.86 C 286.276,72.86 287.276,72.641 288.135,72.281 L 288.135,73.721 C 287.176,74.099 286.019,74.32 284.719,74.32 C 282.443,74.32 281.384,73.34 281.384,71.104 C 281.384,67.25 283.521,64.033 286.818,64.033 C 288.935,64.033 289.734,65.112 289.734,66.291 C 289.733,68.426 287.556,69.606 283.301,69.767 M 299.042,74.139 L 297.283,74.139 L 298.502,67.788 C 298.8,66.228 298.521,65.552 297.622,65.552 C 295.784,65.552 293.749,69.448 293.287,71.904 L 292.869,74.139 L 291.112,74.139 L 292.108,68.946 C 292.37,67.529 292.727,65.672 292.989,64.215 L 294.725,64.215 C 294.606,64.875 294.327,66.011 293.625,68.129 L 293.666,68.129 C 294.604,66.031 296.184,64.016 298.262,64.016 C 300.098,64.016 300.716,65.313 300.337,67.39 L 299.042,74.139 z M 309.904,65.912 C 309.367,65.672 308.786,65.531 308.088,65.531 C 305.571,65.531 304.393,68.369 304.393,70.623 C 304.393,71.664 304.734,72.72 306.469,72.72 C 307.249,72.72 308.088,72.541 308.707,72.242 L 308.587,73.818 C 307.888,74.08 306.968,74.298 305.971,74.298 C 303.395,74.298 302.517,72.9 302.517,71.023 C 302.517,67.23 304.654,64.052 308.207,64.052 C 309.027,64.052 309.686,64.173 310.306,64.353 L 309.904,65.912 z M 316.235,65.39 C 314.657,65.39 313.597,66.77 313.139,68.446 C 316.213,68.328 317.573,67.709 317.573,66.508 C 317.573,65.791 317.036,65.39 316.235,65.39 M 312.92,69.767 C 312.86,70.066 312.82,70.566 312.82,70.923 C 312.82,72.462 313.358,72.86 314.957,72.86 C 315.895,72.86 316.895,72.641 317.753,72.281 L 317.753,73.721 C 316.795,74.099 315.638,74.32 314.337,74.32 C 312.061,74.32 311.003,73.34 311.003,71.104 C 311.003,67.25 313.14,64.033 316.436,64.033 C 318.551,64.033 319.352,65.112 319.352,66.291 C 319.352,68.426 317.175,69.606 312.92,69.767 M 326.7,65.63 C 326.221,65.472 325.703,65.39 325.204,65.39 C 323.904,65.39 323.225,66.01 323.225,66.848 C 323.225,68.426 326.244,68.847 326.244,71.083 C 326.244,72.741 324.785,74.318 321.967,74.318 C 321.31,74.318 320.771,74.278 320.272,74.176 L 320.593,72.578 C 321.112,72.74 321.65,72.838 322.21,72.838 C 323.507,72.838 324.387,72.319 324.387,71.281 C 324.387,69.703 321.391,69.445 321.391,67.047 C 321.391,65.351 322.746,64.03 325.326,64.03 C 326.025,64.03 326.525,64.092 327.024,64.172 L 326.7,65.63 z"
   style="fill:#1f1d21" />
<rect
   id="Distanzrahmen"
   fill="none"
   width="436.92"
   height="98.496" />
</svg>